<svg width="616" height="625" viewBox="0 0 616 625" fill="none" xmlns="http://www.w3.org/2000/svg">
<rect width="616" height="625" fill="#1E1E1E"/>
<path d="M108.014 195.13C107.928 171.058 108.086 149.44 113.366 125.854C124.893 74.3621 161.354 27.7003 204.588 0L205 0.446612L203.881 2.04897L204.287 2.4297L203.481 2.99763L203.773 2.44851C182.487 33.8681 168.898 70.717 167.575 109.129C166.368 144.188 175.659 179.951 199.476 206C183.217 201.338 166.868 198.055 150.023 196.713C136.065 195.362 121.976 196.219 108.014 195.13Z" fill="black"/>
<path d="M416.414 206C428.952 190.29 437.688 175.758 443.064 155.956C454.228 114.831 447.847 70.184 429.507 32.2994C426.615 26.3257 423.527 20.3488 420.065 14.703C417.158 9.96077 413.903 5.37731 411.255 0.480482L411 0C423.651 6.62242 441.259 23.5702 451.545 33.9749C480.99 63.7611 501.74 104.776 506.567 147.074C508.443 163.511 507.885 180.399 508 196.939C495.058 196.629 482.114 196.527 469.168 196.633C451.019 197.439 433.814 200.764 416.414 206Z" fill="url(#paint0_linear_0_1)"/>
<path d="M526.795 147.312C522.26 114.087 510.983 81.6206 492.09 54.0081C486.854 46.355 480.775 39.233 475 32C477.509 33.4611 479.974 35.1044 482.376 36.7487C489.701 41.7645 496.579 47.5281 503.383 53.2477C541.96 85.677 573.903 127.26 593.026 174.647C602.351 197.756 608.314 221.543 613 246C610.03 242.984 607.716 236.068 605.667 232.163C603.507 227.97 601.138 223.906 598.558 219.969C579.288 190.702 555.106 167.271 526.795 147.312Z" fill="black"/>
<path d="M3.48313 243L3 242.51C3.11488 241.074 3.31901 239.726 3.61955 238.317C4.05309 236.194 4.50749 234.074 4.98274 231.959C5.458 229.845 5.95343 227.736 6.46904 225.631C6.98532 223.526 7.52213 221.427 8.07945 219.333C8.63608 217.239 9.21321 215.151 9.81087 213.069C10.4085 210.987 11.0267 208.911 11.6654 206.842C12.3034 204.772 12.9616 202.709 13.6399 200.652C14.3183 198.596 15.0165 196.546 15.7345 194.504C16.4532 192.462 17.1914 190.427 17.9491 188.4C18.7067 186.372 19.4842 184.353 20.2816 182.341C21.0789 180.329 21.8957 178.326 22.732 176.331C23.5684 174.335 24.4242 172.348 25.2995 170.371C26.1741 168.393 27.0682 166.424 27.9818 164.464C28.8953 162.504 29.8277 160.553 30.7789 158.612C31.7301 156.671 32.7001 154.74 33.6889 152.818C34.6784 150.896 35.686 148.985 36.7118 147.084C37.7382 145.183 38.7831 143.292 39.8464 141.412C40.9091 139.531 41.9902 137.662 43.0898 135.804C44.1894 133.946 45.3071 132.098 46.4429 130.263C47.5781 128.427 48.7313 126.603 49.9027 124.791C51.0734 122.978 52.2619 121.178 53.4682 119.389C54.6744 117.601 55.8978 115.824 57.1382 114.06C58.3787 112.296 59.6366 110.545 60.9119 108.807C62.1866 107.068 63.478 105.343 64.7861 103.63C66.0949 101.918 67.4202 100.219 68.7619 98.5335C70.1035 96.8481 71.4612 95.1762 72.835 93.5179C74.2095 91.8596 75.5997 90.2152 77.0057 88.5848C78.4116 86.9543 79.8336 85.3385 81.2717 83.7372C82.7091 82.1353 84.1622 80.5483 85.6311 78.9763C87.0992 77.4043 88.5828 75.847 90.0817 74.3042C91.5807 72.7621 93.0946 71.2353 94.6237 69.7239C96.152 68.2117 97.6951 66.7156 99.2528 65.2354C100.811 63.7546 102.383 62.2897 103.969 60.8409C114.814 50.9152 126.416 41.0281 138.704 33L139 33.1931C134.413 39.4968 129.311 45.3495 124.89 51.8265C105.799 79.7999 95.2412 110.418 89.8489 143.829C49.8822 174.432 28.5172 199.017 3.48313 243Z" fill="black"/>
<path d="M236 221.541C297.184 165.074 253.088 118.795 281.235 81.396C290.066 69.661 301.805 63.0635 316.111 61.2441C318.666 60.9368 321.322 60.9703 323.89 61.0716C340.346 61.7185 351.757 70.7845 362.52 82.5905C370.209 82.415 377.47 83.0807 384.177 87.2954C393.458 93.1268 396.657 101.527 399 111.79C391.502 111.675 383.988 111.472 376.489 111.527C368.353 111.588 360.758 113.615 354.987 119.891C347.197 128.363 345.01 142.631 345.202 153.802C345.546 173.886 354.524 193.209 367.465 208.062C371.851 213.096 376.847 217.621 381.608 222.281C360.619 231.886 342.25 251.278 328.039 269.4C321.253 278.243 315.257 287.707 310.817 298C296.694 276.877 281.161 256.85 261.503 240.773C253.564 234.281 242.988 228.792 236 221.541ZM317.438 78.9171C308.046 80.5129 300.075 84.5166 294.489 92.6419C292.824 95.0644 291.714 97.6196 290.843 100.428C302.75 100.64 314.66 100.333 326.567 100.387C334.781 100.477 342.993 100.684 351.201 101.01C348.524 92.6848 343.91 86.4614 336.149 82.4212C330.074 79.2609 324.159 78.5691 317.438 78.9171Z" fill="#492BC0"/>
<path d="M291 100.422C291.866 97.6364 292.969 95.1013 294.625 92.6979C300.177 84.6364 308.101 80.6642 317.437 79.081C324.119 78.7357 329.998 79.4221 336.037 82.5575C343.753 86.566 348.339 92.7404 351 101C342.84 100.677 334.678 100.471 326.512 100.382C314.675 100.328 302.837 100.633 291 100.422Z" fill="#E2E2E2"/>
<path d="M527.308 244.366C526.834 235.791 527.14 226.995 527.116 218.4L527 170C547.703 185.143 570.717 210.003 584.18 231.947C599.248 256.508 608.572 282.557 613.426 311.017C614.912 319.729 616.264 328.798 615.956 337.648C615.246 358.094 609.937 379.035 605.361 398.896C604.459 402.677 603.457 406.331 602.177 410C601.346 401.465 600.782 392.902 599.523 384.416C590.902 326.331 569.225 285.168 527.308 244.366Z" fill="#D30707"/>
<path d="M10.4309 396.494C4.27419 374.563 -1.53728 346.273 0.368118 323.498C1.75517 306.912 6.04641 290.619 11.7503 275.067C27.8725 231.11 52.6386 200.847 87.4798 171C88.5718 174.501 87.6079 233.455 87.5925 242.325C75.2904 253.426 64.3589 267.359 55.1863 281.2C28.0989 322.072 18.0873 359.355 13.3832 408C12.3148 404.193 11.4061 400.327 10.4309 396.494Z" fill="#D30707"/>
<path d="M108.011 268.375C108.318 250.641 107.927 232.855 108.013 215.112C134.776 214.641 162.485 215.332 188.22 223.498C228.723 236.348 262.518 263.091 286.763 298.356C291.098 304.66 295.483 311.131 299 317.951C291.859 329.663 285.283 341.446 279.547 353.936C276.626 360.161 274.239 366.643 271.611 373C261.226 348.315 248.322 324.335 228.45 306.172C202.334 282.303 170.148 269.188 135.17 267.704C126.094 267.319 117.07 267.879 108.011 268.375Z" fill="black"/>
<path d="M321 320.179C328.366 302.879 337.427 286.324 349.676 272.119C380.864 235.95 422.97 218.204 469.29 215.417C481.93 214.548 495.141 215.305 507.839 215.309L508 267.891C478.441 268.373 456.09 267.941 428.195 279.976C400.955 291.73 375.49 313.779 360.215 339.82C355.61 347.67 352.228 356.053 348.876 364.516L345.032 376C340.847 368.33 338.621 358.742 335.253 350.562C330.978 340.176 325.609 330.393 321 320.179Z" fill="black"/>
<path d="M77.8014 519.289C65.3632 504.292 54.2694 489.232 44.3566 472.338C41.6955 467.803 38.6314 463.047 36.8697 458.081C35.4183 453.989 35.0143 449.601 34.5559 445.303C29.9696 402.331 35.1767 357.727 54.8029 318.938C63.8317 301.091 75.5843 284.614 87.9033 269C88.7647 270.12 90.5994 285.276 91.2254 288.07C95.2964 306.398 100.221 324.485 106 342.332C98.4914 354.774 91.358 367.362 85.8486 380.877C84.9208 383.201 84.0379 385.544 83.1998 387.904C82.3618 390.264 81.5692 392.64 80.8223 395.031C80.0754 397.423 79.3748 399.828 78.7204 402.248C78.0659 404.667 77.4581 407.098 76.8969 409.542C76.3357 411.986 75.8217 414.439 75.3551 416.904C74.8878 419.368 74.4684 421.84 74.097 424.321C73.7249 426.802 73.4004 429.289 73.1236 431.782C72.8475 434.276 72.6189 436.773 72.438 439.276C72.2578 441.779 72.1255 444.285 72.0412 446.793C71.957 449.301 71.9207 451.809 71.9323 454.319C71.9446 456.828 72.0049 459.336 72.1132 461.843C72.2215 464.35 72.3777 466.854 72.5819 469.354C72.7861 471.855 73.0383 474.351 73.3384 476.842C73.6386 479.333 73.9867 481.817 74.3827 484.294C74.7781 486.77 75.2211 489.238 75.7118 491.697C76.2017 494.157 76.739 496.606 77.3235 499.044C79.9805 509.997 83.8494 520.591 88.077 531C84.4589 527.294 81.1667 523.232 77.8014 519.289Z" fill="black"/>
<path d="M509 341.514C511.582 333.465 515.165 325.732 517.962 317.744C523.342 302.379 526.334 285.331 526.826 269C526.986 269.144 527.151 269.283 527.304 269.434C533.07 275.122 538.22 282.567 542.942 289.211C567.028 323.094 581.347 362.351 583.598 404.253C584.195 415.379 584.497 442.442 581.752 452.609C580.283 458.046 576.895 463.211 574.114 468.057C564.128 485.453 553.308 501.08 540.139 516.095C536.45 520.543 532.332 524.738 528.429 529C534.528 513.664 539.451 497.756 541.912 481.364C542.145 479.845 542.359 478.324 542.556 476.801C542.753 475.276 542.931 473.75 543.092 472.221C543.252 470.694 543.393 469.164 543.517 467.632C543.64 466.1 543.746 464.566 543.832 463.032C543.918 461.497 543.987 459.961 544.037 458.425C544.087 456.889 544.118 455.352 544.131 453.816C544.144 452.278 544.139 450.741 544.115 449.204C544.092 447.667 544.05 446.131 543.989 444.595C543.929 443.059 543.85 441.525 543.752 439.991C543.656 438.457 543.54 436.924 543.406 435.393C543.272 433.862 543.119 432.333 542.949 430.805C542.779 429.278 542.59 427.754 542.383 426.231C542.175 424.708 541.95 423.189 541.707 421.672C541.463 420.155 541.201 418.642 540.921 417.132C540.642 415.621 540.344 414.115 540.028 412.612C539.713 411.108 539.379 409.609 539.027 408.115C538.676 406.62 538.306 405.13 537.918 403.645C537.531 402.159 537.126 400.679 536.703 399.204C536.28 397.729 535.839 396.259 535.381 394.794C534.923 393.33 534.448 391.871 533.955 390.419C533.462 388.966 532.952 387.52 532.424 386.081C531.896 384.641 531.351 383.208 530.789 381.782C530.227 380.356 529.648 378.937 529.052 377.526C528.456 376.113 527.844 374.709 527.214 373.313C526.585 371.916 525.938 370.528 525.275 369.148C524.612 367.768 523.933 366.396 523.238 365.032C522.542 363.669 521.83 362.314 521.102 360.968C520.373 359.622 519.629 358.286 518.869 356.959C518.109 355.632 517.333 354.315 516.541 353.006C515.749 351.699 514.942 350.401 514.119 349.114C513.297 347.826 512.458 346.549 511.605 345.282C510.752 344.015 509.884 342.759 509 341.514Z" fill="black"/>
<path d="M111 287.924L118.875 287.479C140.531 285.462 165.152 289.887 184.785 299.326C217.61 315.107 239.024 342.687 251 377L244.221 376.805C227.279 375.586 210.934 373.242 194.834 367.485C192.968 366.815 191.116 366.106 189.279 365.359C187.442 364.611 185.621 363.824 183.815 363C182.01 362.176 180.222 361.313 178.452 360.413C176.682 359.513 174.931 358.577 173.198 357.603C171.466 356.629 169.754 355.618 168.063 354.572C166.372 353.526 164.703 352.445 163.056 351.328C161.408 350.212 159.784 349.061 158.184 347.876C156.584 346.691 155.008 345.472 153.457 344.221C151.906 342.969 150.381 341.685 148.883 340.37C147.384 339.054 145.912 337.707 144.468 336.329C143.024 334.951 141.609 333.543 140.221 332.106C138.835 330.668 137.478 329.202 136.15 327.707C134.823 326.212 133.526 324.69 132.261 323.141C130.995 321.591 129.762 320.015 128.56 318.414C127.359 316.812 126.191 315.185 125.055 313.535C123.92 311.883 122.818 310.209 121.751 308.512C117.642 301.926 114.33 294.937 111 287.924Z" fill="#86C717"/>
<path d="M363.59 377.247C369.19 359.631 377.413 343.576 389.899 329.972C411.473 306.464 438.243 292.588 469.566 288.431C478.051 287.304 486.636 287.158 495.177 286.857L503.135 286.73C497.533 300.989 488.869 314.683 479.262 326.44C451.895 359.927 413.564 373.254 372.398 376.953L363.59 377.247Z" fill="black"/>
<path d="M317.695 625C316.303 568.591 317.454 512.057 317.325 455.63L317.251 392.728C317.273 382.676 316.487 371.939 317.707 362C322.917 367.327 333.574 399.397 334.953 407.212C336.518 416.076 335.866 425.935 335.863 434.926L335.818 477.963L335.707 574.271C335.699 589.975 335.995 605.714 335.764 621.412C335.747 622.603 335.873 622.649 335.165 623.701C329.357 624.343 323.534 624.776 317.695 625Z" fill="#3821BD"/>
<path d="M281.093 623.849L280.148 623.713L279.486 622.819C278.377 610.982 279.51 597.647 279.54 585.68L279.667 507.003L279.574 442.336C279.538 431.259 278.414 418.989 280.133 408.045C282.591 392.396 290.689 376.98 297.929 363C298.019 363.09 298.129 363.165 298.2 363.272C299.245 364.825 299.226 603.152 298.379 625C292.631 624.795 286.794 624.605 281.093 623.849Z" fill="#3821BD"/>
<path d="M390 613C397.39 602.837 406.519 593.893 414.542 584.233C433.543 561.357 454.325 530.941 465.324 502.961C470.899 488.777 473.98 473.4 477.618 458.591C482.626 437.99 487.774 417.425 493.062 396.896C495.212 388.53 498.371 373.074 502.045 366C507.333 375.499 512.037 385.478 515.523 395.814C529.572 437.465 528.382 486.532 509.396 526.364C502.571 540.685 491.569 558.563 480.19 569.505C464.65 584.448 430.169 600.314 409.569 607.579C403.146 609.764 396.623 611.571 390 613Z" fill="#C30707"/>
<path d="M210.684 608.066C204.847 606.16 199.077 604.059 193.376 601.762C187.674 599.465 182.052 596.978 176.512 594.302C170.971 591.625 165.523 588.764 160.167 585.718C154.811 582.673 149.559 579.449 144.412 576.049C119.872 559.922 100.249 517.69 94.2612 488.94C86.409 451.247 92.7139 400.837 113.42 368C118.285 388.469 124.794 408.604 129.905 429.034C134.681 448.123 138.38 467.762 144.466 486.463C155.849 521.447 177.099 553.884 200.307 581.774C209.234 592.501 218.757 602.575 228 613C222.138 611.605 216.431 609.878 210.684 608.066Z" fill="#AE0606"/>
<path d="M243.337 617.315C243.169 595.458 243.172 573.6 243.344 551.743C243.222 527.046 243.222 502.349 243.346 477.652C243.462 453.236 242.424 428.575 243.476 404.205C249.432 403.964 255.441 404.057 261.405 404C261.844 440.82 261.393 477.674 261.527 514.499C261.559 523.413 262.39 618.434 261.773 620.177C261.667 620.477 261.459 620.725 261.301 621C255.279 619.952 249.291 618.724 243.337 617.315Z" fill="black"/>
<path d="M354.401 621L354.483 475.611L354.311 428.863C354.276 421.559 353.57 413.477 354.408 406.254C354.553 404.996 354.433 404.839 355.451 404.059C361.3 403.992 367.15 403.982 373 404.029C372.522 439.022 372.389 474.014 372.601 509.008L372.065 616.404C371.315 617.628 371.11 617.468 369.731 617.826C364.604 618.772 359.504 619.923 354.401 621Z" fill="black"/>
<defs>
<linearGradient id="paint0_linear_0_1" x1="459.5" y1="0" x2="459.5" y2="206" gradientUnits="userSpaceOnUse">
<stop stop-color="#D30707"/>
<stop offset="0.153846" stop-color="#C30707"/>
<stop offset="0.365385" stop-color="#AE0606"/>
<stop offset="1" stop-color="#6D0404"/>
</linearGradient>
</defs>
</svg>
