<?xml version="1.0" encoding="utf-8" ?>
<svg xmlns="http://www.w3.org/2000/svg" xmlns:xlink="http://www.w3.org/1999/xlink" width="1024" height="1024">
	<path fill="#E2E2E2" d="M0 0L1024 0L1024 1024L0 1024L0 0ZM410.981 217.971C368.703 244.455 333.048 289.068 321.776 338.299C316.613 360.849 316.458 381.518 316.542 404.533C330.196 405.574 343.973 404.755 357.623 406.047C374.095 407.33 390.083 410.469 405.982 414.926C382.692 390.021 373.606 355.828 374.786 322.308C376.08 285.583 389.369 250.352 410.184 220.312L409.899 220.837L410.687 220.294L410.29 219.93L411.384 218.398L410.981 217.971ZM612.298 218.447L612.548 218.907C615.147 223.595 618.34 227.983 621.193 232.523C624.59 237.928 627.62 243.65 630.458 249.369C648.454 285.638 654.715 328.381 643.76 367.752C638.485 386.71 629.913 400.622 617.61 415.662C634.684 410.649 651.566 407.466 669.375 406.694Q688.429 406.543 707.478 406.987C707.365 391.153 707.913 374.985 706.072 359.249C701.335 318.755 680.975 279.489 652.082 250.973C641.989 241.012 624.712 224.787 612.298 218.447ZM675.098 248.895C680.733 255.801 686.665 262.601 691.774 269.908C710.209 296.272 721.212 327.27 725.637 358.993C753.262 378.05 776.857 400.421 795.66 428.365Q799.436 434.003 802.597 440.008C804.596 443.736 806.854 450.339 809.752 453.219C805.18 429.868 799.361 407.156 790.262 385.092C771.603 339.848 740.434 300.145 702.793 269.182C696.154 263.721 689.443 258.218 682.295 253.429C679.951 251.859 677.546 250.29 675.098 248.895ZM346.378 250.043C334.399 257.734 323.088 267.206 312.515 276.715Q310.195 278.797 307.917 280.925Q305.639 283.052 303.404 285.225Q301.168 287.397 298.976 289.613Q296.784 291.83 294.637 294.089Q292.489 296.348 290.387 298.65Q288.284 300.951 286.228 303.294Q284.172 305.637 282.162 308.02Q280.153 310.403 278.191 312.825Q276.229 315.247 274.315 317.708Q272.402 320.169 270.538 322.667Q268.673 325.165 266.859 327.7Q265.045 330.235 263.281 332.805Q261.517 335.375 259.805 337.98Q258.092 340.584 256.432 343.222Q254.771 345.86 253.163 348.531Q251.555 351.201 250.001 353.903Q248.446 356.605 246.945 359.337Q245.445 362.069 243.998 364.83Q242.552 367.592 241.161 370.381Q239.77 373.171 238.434 375.987Q237.098 378.804 235.819 381.646Q234.539 384.488 233.316 387.356Q232.093 390.223 230.927 393.114Q229.761 396.005 228.653 398.918Q227.545 401.832 226.494 404.766Q225.444 407.701 224.452 410.656Q223.46 413.612 222.527 416.586Q221.593 419.56 220.719 422.552Q219.845 425.544 219.031 428.553Q218.216 431.562 217.461 434.586Q216.707 437.611 216.012 440.649Q215.317 443.688 214.683 446.74C214.39 448.089 214.191 449.381 214.079 450.757L214.55 451.226C238.956 409.09 259.785 385.537 298.749 356.219C304.006 324.211 314.299 294.878 332.911 268.079C337.221 261.874 342.195 256.267 346.667 250.228L346.378 250.043ZM519.902 277.192C505.915 278.933 494.437 285.246 485.803 296.475C458.283 332.261 501.397 376.545 441.576 430.577C448.408 437.515 458.749 442.768 466.511 448.98C485.731 464.363 500.918 483.527 514.726 503.739C519.067 493.89 524.929 484.834 531.564 476.372C545.458 459.032 563.418 440.476 583.939 431.285C579.285 426.826 574.4 422.496 570.112 417.679C557.459 403.467 548.681 384.977 548.345 365.759C548.157 355.07 550.295 341.417 557.912 333.31C563.554 327.305 570.98 325.365 578.935 325.307C586.266 325.254 593.613 325.448 600.944 325.558C598.653 315.738 595.525 307.7 586.451 302.12C579.894 298.087 572.795 297.45 565.277 297.618C554.754 286.321 543.597 277.646 527.508 277.027C524.997 276.93 522.4 276.898 519.902 277.192ZM726.444 380.797L726.556 427.124C726.58 435.351 726.283 443.77 726.742 451.978C767.346 491.032 788.343 530.432 796.694 586.03C797.914 594.152 798.46 602.349 799.265 610.518C800.505 607.006 801.475 603.509 802.349 599.89C806.782 580.879 811.924 560.835 812.612 541.265C812.91 532.794 811.601 524.113 810.161 515.774C805.459 488.533 796.428 463.6 781.832 440.091C768.791 419.087 746.498 395.291 726.444 380.797ZM296.386 381.406C262.375 409.973 238.199 438.939 222.461 481.011C216.893 495.897 212.704 511.491 211.35 527.366C209.49 549.164 215.163 576.242 221.173 597.232C222.125 600.901 223.012 604.601 224.055 608.245C228.647 561.686 238.42 526.001 264.862 486.881C273.816 473.634 284.487 460.298 296.496 449.673C296.511 441.183 297.452 384.757 296.386 381.406ZM316.582 423.648C316.498 440.668 316.881 457.73 316.58 474.743C325.442 474.267 334.269 473.73 343.147 474.099C377.363 475.523 408.847 488.104 434.394 511.001C453.833 528.425 466.455 551.429 476.614 575.109C479.185 569.011 481.52 562.793 484.377 556.821C489.988 544.839 496.421 533.536 503.406 522.301C499.966 515.758 495.676 509.551 491.436 503.503C467.719 469.674 434.661 444.019 395.041 431.692C369.867 423.859 342.762 423.196 316.582 423.648ZM669.387 424.714C624.084 427.369 582.903 444.278 552.4 478.74C540.42 492.275 531.558 508.049 524.354 524.533C528.862 534.265 534.113 543.586 538.294 553.482C541.588 561.276 543.765 570.412 547.858 577.72L551.618 566.778C554.896 558.714 558.204 550.727 562.708 543.247C577.647 518.435 602.553 497.426 629.195 486.227C656.477 474.759 678.337 475.171 707.247 474.712L707.09 424.611C694.67 424.607 681.75 423.886 669.387 424.714ZM296.831 475.934C284.846 490.859 273.412 506.609 264.628 523.668C245.534 560.745 240.468 603.381 244.93 644.456C245.376 648.564 245.769 652.759 247.181 656.67C248.895 661.417 251.876 665.963 254.465 670.298C264.109 686.446 274.902 700.842 287.003 715.177C290.277 718.946 293.48 722.829 297 726.371C292.887 716.421 289.123 706.295 286.538 695.825Q285.685 692.33 284.97 688.803Q284.254 685.277 283.677 681.726Q283.099 678.174 282.661 674.603Q282.223 671.032 281.925 667.446Q281.627 663.861 281.469 660.266Q281.311 656.672 281.293 653.074Q281.276 649.476 281.399 645.88Q281.522 642.284 281.785 638.695Q282.049 635.107 282.452 631.532Q282.856 627.957 283.399 624.4Q283.941 620.843 284.623 617.31Q285.304 613.777 286.123 610.273Q286.942 606.77 287.897 603.301Q288.852 599.832 289.942 596.403Q291.032 592.974 292.255 589.59Q293.478 586.206 294.832 582.873C300.192 569.955 307.132 557.922 314.437 546.03Q306.004 520.441 300.063 494.162C299.454 491.492 297.669 477.005 296.831 475.934ZM725.539 475.899C725.059 491.527 722.138 507.84 716.885 522.543C714.155 530.187 710.657 537.587 708.136 545.29Q709.43 547.077 710.679 548.895Q711.929 550.714 713.134 552.562Q714.339 554.41 715.498 556.287Q716.658 558.165 717.771 560.07Q718.884 561.974 719.951 563.906Q721.017 565.837 722.036 567.794Q723.054 569.751 724.025 571.733Q724.996 573.714 725.918 575.719Q726.84 577.723 727.713 579.75Q728.585 581.776 729.408 583.823Q730.231 585.87 731.004 587.937Q731.777 590.003 732.499 592.088Q733.221 594.173 733.891 596.275Q734.562 598.377 735.182 600.495Q735.801 602.612 736.368 604.744Q736.936 606.876 737.451 609.022Q737.966 611.167 738.428 613.325Q738.891 615.482 739.301 617.65Q739.71 619.818 740.067 621.995Q740.423 624.172 740.727 626.358Q741.03 628.543 741.28 630.735Q741.529 632.928 741.726 635.125Q741.922 637.323 742.064 639.525Q742.207 641.726 742.295 643.931Q742.384 646.135 742.418 648.341Q742.453 650.548 742.434 652.754Q742.415 654.96 742.342 657.165Q742.269 659.37 742.142 661.573Q742.015 663.776 741.834 665.975Q741.653 668.174 741.419 670.367Q741.184 672.561 740.896 674.749Q740.608 676.936 740.267 679.116C737.865 694.802 733.058 710.025 727.104 724.7C730.914 720.622 734.935 716.607 738.536 712.351C751.393 697.983 761.956 683.029 771.705 666.382C774.42 661.745 777.728 656.802 779.162 651.599C781.842 641.87 781.547 615.973 780.964 605.326C778.767 565.229 764.787 527.663 741.273 495.239C736.663 488.882 731.635 481.757 726.006 476.314C725.856 476.17 725.695 476.037 725.539 475.899ZM694.891 492.723C686.545 493.011 678.157 493.151 669.866 494.229C639.26 498.208 613.103 511.487 592.023 533.984C579.823 547.004 571.789 562.368 566.317 579.227L574.923 578.946C615.147 575.406 652.6 562.652 679.34 530.604C688.727 519.353 697.193 506.247 702.666 492.601L694.891 492.723ZM327.279 493.215L319.578 493.642C322.834 500.371 326.073 507.078 330.091 513.398Q331.657 515.841 333.322 518.218Q334.988 520.594 336.75 522.899Q338.512 525.205 340.369 527.435Q342.225 529.666 344.172 531.818Q346.119 533.97 348.153 536.039Q350.188 538.108 352.306 540.092Q354.424 542.075 356.623 543.969Q358.821 545.863 361.096 547.665Q363.371 549.466 365.719 551.172Q368.066 552.878 370.483 554.485Q372.899 556.092 375.38 557.598Q377.86 559.104 380.401 560.506Q382.942 561.908 385.538 563.203Q388.135 564.499 390.783 565.685Q393.431 566.872 396.126 567.949Q398.821 569.025 401.558 569.989C417.302 575.514 433.286 577.763 449.853 578.933L456.482 579.12C444.771 546.193 423.83 519.727 391.731 504.583C372.532 495.525 348.456 491.279 327.279 493.215ZM521.52 564.336C520.343 573.852 521.102 584.131 521.08 593.755L521.152 653.977C521.276 708 520.166 762.126 521.509 816.132Q529.959 815.811 538.364 814.888C539.047 813.881 538.925 813.837 538.942 812.697C539.165 797.668 538.879 782.599 538.887 767.564L538.994 675.359L539.037 634.155C539.04 625.547 539.669 616.108 538.159 607.622C536.829 600.14 526.547 569.436 521.52 564.336ZM501.79 565.391C495.007 578.766 487.42 593.515 485.117 608.488C483.506 618.958 484.559 630.697 484.593 641.295L484.68 703.165L484.561 778.439C484.533 789.888 483.471 802.646 484.51 813.971L485.131 814.827L486.016 814.957C491.358 815.68 496.826 815.862 502.212 816.058C503.005 795.155 503.023 567.137 502.044 565.651C501.978 565.549 501.875 565.477 501.79 565.391ZM701.571 568.315C697.973 575.086 694.879 589.879 692.773 597.887Q685.005 627.36 677.648 656.938C674.085 671.112 671.067 685.83 665.607 699.406C654.835 726.187 634.481 755.299 615.872 777.195C608.014 786.441 599.074 795.002 591.836 804.729Q601.566 802.678 611.002 799.54C631.177 792.587 664.947 777.401 680.167 763.098C691.311 752.625 702.086 735.513 708.771 721.806C727.365 683.681 728.531 636.717 714.772 596.851C711.357 586.958 706.75 577.407 701.571 568.315ZM322.195 570.821C301.935 602.23 295.766 650.447 303.449 686.501C309.308 714 328.508 754.396 352.519 769.821Q360.074 774.7 367.935 779.07Q375.795 783.439 383.927 787.28Q392.059 791.121 400.428 794.416Q408.796 797.711 417.363 800.446C422.986 802.179 428.57 803.831 434.306 805.165C425.262 795.193 415.944 785.558 407.21 775.297C384.502 748.62 363.71 717.594 352.572 684.132C346.617 666.244 342.998 647.459 338.325 629.2C333.324 609.659 326.955 590.4 322.195 570.821ZM448.488 604.748C447.436 628.08 448.474 651.69 448.358 675.066Q448.173 710.534 448.356 746Q448.098 777.389 448.349 808.778Q457.278 810.801 466.309 812.306C466.466 812.043 466.674 811.805 466.78 811.518C467.397 809.849 466.566 718.877 466.534 710.343C466.4 675.087 466.851 639.803 466.412 604.552C460.45 604.607 454.443 604.518 448.488 604.748ZM557.935 604.748C556.921 605.496 557.041 605.647 556.896 606.853C556.062 613.777 556.765 621.526 556.8 628.528L556.971 673.346L556.889 812.732C561.972 811.699 567.051 810.596 572.158 809.689C573.532 809.346 573.736 809.499 574.483 808.326L575.017 705.364Q574.7 655.039 575.414 604.72Q566.674 604.652 557.935 604.748Z"/>
	<path d="M316.542 404.533C316.458 381.518 316.613 360.849 321.776 338.299C333.048 289.068 368.703 244.455 410.981 217.971L411.384 218.398L410.29 219.93L410.687 220.294L409.899 220.837L410.184 220.312C389.369 250.352 376.08 285.583 374.786 322.308C373.606 355.828 382.692 390.021 405.982 414.926C390.083 410.469 374.095 407.33 357.623 406.047C343.973 404.755 330.196 405.574 316.542 404.533Z"/>
	<path d="M617.61 415.662C629.913 400.622 638.485 386.71 643.76 367.752C654.715 328.381 648.454 285.638 630.458 249.369C627.62 243.65 624.59 237.928 621.193 232.523C618.34 227.983 615.147 223.595 612.548 218.907L612.298 218.447C624.712 224.787 641.989 241.012 652.082 250.973C680.975 279.489 701.335 318.755 706.072 359.249C707.913 374.985 707.365 391.153 707.478 406.987Q688.429 406.543 669.375 406.694C651.566 407.466 634.684 410.649 617.61 415.662Z"/>
	<path d="M725.637 358.993C721.212 327.27 710.209 296.272 691.774 269.908C686.665 262.601 680.733 255.801 675.098 248.895C677.546 250.29 679.951 251.859 682.295 253.429C689.443 258.218 696.154 263.721 702.793 269.182C740.434 300.145 771.603 339.848 790.262 385.092C799.361 407.156 805.18 429.868 809.752 453.219C806.854 450.339 804.596 443.736 802.597 440.008Q799.436 434.003 795.66 428.365C776.857 400.421 753.262 378.05 725.637 358.993Z"/>
	<path d="M214.55 451.226L214.079 450.757C214.191 449.381 214.39 448.089 214.683 446.74Q215.317 443.688 216.012 440.649Q216.707 437.611 217.461 434.586Q218.216 431.562 219.031 428.553Q219.845 425.544 220.719 422.552Q221.593 419.56 222.527 416.586Q223.46 413.612 224.452 410.656Q225.444 407.701 226.494 404.766Q227.545 401.832 228.653 398.918Q229.761 396.005 230.927 393.114Q232.093 390.223 233.316 387.356Q234.539 384.488 235.819 381.646Q237.098 378.804 238.434 375.987Q239.77 373.171 241.161 370.381Q242.552 367.592 243.998 364.83Q245.445 362.069 246.945 359.337Q248.446 356.605 250.001 353.903Q251.555 351.201 253.163 348.531Q254.771 345.86 256.432 343.222Q258.092 340.584 259.805 337.98Q261.517 335.375 263.281 332.805Q265.045 330.235 266.859 327.7Q268.673 325.165 270.538 322.667Q272.402 320.169 274.315 317.708Q276.229 315.247 278.191 312.825Q280.153 310.403 282.162 308.02Q284.172 305.637 286.228 303.294Q288.284 300.951 290.387 298.65Q292.489 296.348 294.637 294.089Q296.784 291.83 298.976 289.613Q301.168 287.397 303.404 285.225Q305.639 283.052 307.917 280.925Q310.195 278.797 312.515 276.715C323.088 267.206 334.399 257.734 346.378 250.043L346.667 250.228C342.195 256.267 337.221 261.874 332.911 268.079C314.299 294.878 304.006 324.211 298.749 356.219C259.785 385.537 238.956 409.09 214.55 451.226Z"/>
	<path d="M441.576 430.577C501.397 376.545 458.283 332.261 485.803 296.475C494.437 285.246 505.915 278.933 519.902 277.192C522.4 276.898 524.997 276.93 527.508 277.027C543.597 277.646 554.754 286.321 565.277 297.618C572.795 297.45 579.894 298.087 586.451 302.12C595.525 307.7 598.653 315.738 600.944 325.558C593.613 325.448 586.266 325.254 578.935 325.307C570.98 325.365 563.554 327.305 557.912 333.31C550.295 341.417 548.157 355.07 548.345 365.759C548.681 384.977 557.459 403.467 570.112 417.679C574.4 422.496 579.285 426.826 583.939 431.285C563.418 440.476 545.458 459.032 531.564 476.372C524.929 484.834 519.067 493.89 514.726 503.739C500.918 483.527 485.731 464.363 466.511 448.98C458.749 442.768 448.408 437.515 441.576 430.577ZM521.199 294.103C512.017 295.63 504.223 299.461 498.762 307.236C497.134 309.554 496.049 311.999 495.197 314.686C506.839 314.889 518.483 314.595 530.125 314.647Q542.172 314.776 554.21 315.243C551.593 307.277 547.082 301.322 539.493 297.456C533.554 294.432 527.771 293.77 521.199 294.103Z"/>
	<path fill="#E2E2E2" d="M495.197 314.686C496.049 311.999 497.134 309.554 498.762 307.236C504.223 299.461 512.017 295.63 521.199 294.103C527.771 293.77 533.554 294.432 539.493 297.456C547.082 301.322 551.593 307.277 554.21 315.243Q542.172 314.776 530.125 314.647C518.483 314.595 506.839 314.889 495.197 314.686Z"/>
	<path d="M726.742 451.978C726.283 443.77 726.58 435.351 726.556 427.124L726.444 380.797C746.498 395.291 768.791 419.087 781.832 440.091C796.428 463.6 805.459 488.533 810.161 515.774C811.601 524.113 812.91 532.794 812.612 541.265C811.924 560.835 806.782 580.879 802.349 599.89C801.475 603.509 800.505 607.006 799.265 610.518C798.46 602.349 797.914 594.152 796.694 586.03C788.343 530.432 767.346 491.032 726.742 451.978Z"/>
	<path d="M221.173 597.232C215.163 576.242 209.49 549.164 211.35 527.366C212.704 511.491 216.893 495.897 222.461 481.011C238.199 438.939 262.375 409.973 296.386 381.406C297.452 384.757 296.511 441.183 296.496 449.673C284.487 460.298 273.816 473.634 264.862 486.881C238.42 526.001 228.647 561.686 224.055 608.245C223.012 604.601 222.125 600.901 221.173 597.232Z"/>
	<path d="M316.58 474.743C316.881 457.73 316.498 440.668 316.582 423.648C342.762 423.196 369.867 423.859 395.041 431.692C434.661 444.019 467.719 469.674 491.436 503.503C495.676 509.551 499.966 515.758 503.406 522.301C496.421 533.536 489.988 544.839 484.377 556.821C481.52 562.793 479.185 569.011 476.614 575.109C466.455 551.429 453.833 528.425 434.394 511.001C408.847 488.104 377.363 475.523 343.147 474.099C334.269 473.73 325.442 474.267 316.58 474.743Z"/>
	<path d="M524.354 524.533C531.558 508.049 540.42 492.275 552.4 478.74C582.903 444.278 624.084 427.369 669.387 424.714C681.75 423.886 694.67 424.607 707.09 424.611L707.247 474.712C678.337 475.171 656.477 474.759 629.195 486.227C602.553 497.426 577.647 518.435 562.708 543.247C558.204 550.727 554.896 558.714 551.618 566.778L547.858 577.72C543.765 570.412 541.588 561.276 538.294 553.482C534.113 543.586 528.862 534.265 524.354 524.533Z"/>
	<path d="M287.003 715.177C274.902 700.842 264.109 686.446 254.465 670.298C251.876 665.963 248.895 661.417 247.181 656.67C245.769 652.759 245.376 648.564 244.93 644.456C240.468 603.381 245.534 560.745 264.628 523.668C273.412 506.609 284.846 490.859 296.831 475.934C297.669 477.005 299.454 491.492 300.063 494.162Q306.004 520.441 314.437 546.03C307.132 557.922 300.192 569.955 294.832 582.873Q293.478 586.206 292.255 589.59Q291.032 592.974 289.942 596.403Q288.852 599.832 287.897 603.301Q286.942 606.77 286.123 610.273Q285.304 613.777 284.623 617.31Q283.941 620.843 283.399 624.4Q282.856 627.957 282.452 631.532Q282.049 635.107 281.785 638.695Q281.522 642.284 281.399 645.88Q281.276 649.476 281.293 653.074Q281.311 656.672 281.469 660.266Q281.627 663.861 281.925 667.446Q282.223 671.032 282.661 674.603Q283.099 678.175 283.677 681.726Q284.254 685.277 284.97 688.803Q285.685 692.33 286.538 695.825C289.123 706.295 292.887 716.421 297 726.371C293.48 722.829 290.277 718.946 287.003 715.177Z"/>
	<path d="M708.136 545.29C710.657 537.587 714.155 530.187 716.885 522.543C722.138 507.84 725.059 491.527 725.539 475.899C725.695 476.037 725.856 476.17 726.006 476.314C731.635 481.757 736.663 488.882 741.273 495.239C764.787 527.663 778.767 565.229 780.964 605.326C781.547 615.973 781.842 641.87 779.162 651.599C777.728 656.802 774.42 661.745 771.705 666.382C761.956 683.029 751.393 697.983 738.536 712.351C734.935 716.607 730.914 720.622 727.104 724.7C733.058 710.025 737.865 694.802 740.267 679.116Q740.608 676.936 740.896 674.749Q741.184 672.561 741.419 670.367Q741.653 668.174 741.834 665.975Q742.015 663.776 742.142 661.573Q742.268 659.37 742.342 657.165Q742.415 654.96 742.434 652.754Q742.453 650.547 742.418 648.341Q742.384 646.135 742.295 643.931Q742.207 641.726 742.064 639.525Q741.922 637.323 741.726 635.125Q741.529 632.928 741.28 630.735Q741.03 628.543 740.727 626.358Q740.423 624.172 740.067 621.995Q739.71 619.818 739.3 617.65Q738.891 615.482 738.428 613.325Q737.966 611.167 737.451 609.022Q736.936 606.876 736.368 604.744Q735.801 602.612 735.182 600.495Q734.562 598.377 733.891 596.275Q733.221 594.173 732.499 592.088Q731.777 590.003 731.004 587.937Q730.231 585.87 729.408 583.823Q728.585 581.776 727.712 579.75Q726.84 577.723 725.918 575.719Q724.996 573.714 724.025 571.733Q723.054 569.752 722.036 567.795Q721.017 565.838 719.951 563.906Q718.884 561.974 717.771 560.069Q716.658 558.165 715.498 556.287Q714.339 554.41 713.134 552.562Q711.929 550.714 710.679 548.895Q709.43 547.077 708.136 545.29Z"/>
	<path d="M566.317 579.227C571.789 562.368 579.823 547.004 592.023 533.984C613.103 511.487 639.26 498.208 669.866 494.229C678.157 493.151 686.545 493.011 694.891 492.723L702.666 492.601C697.193 506.247 688.727 519.353 679.34 530.604C652.6 562.652 615.147 575.406 574.923 578.946L566.317 579.227Z"/>
	<path d="M319.578 493.642L327.279 493.215C348.456 491.279 372.532 495.525 391.731 504.583C423.83 519.727 444.771 546.193 456.482 579.12L449.853 578.933C433.286 577.763 417.302 575.514 401.558 569.989Q398.821 569.025 396.126 567.949Q393.431 566.872 390.783 565.685Q388.135 564.499 385.538 563.203Q382.942 561.908 380.401 560.506Q377.86 559.104 375.379 557.598Q372.899 556.092 370.483 554.485Q368.066 552.878 365.719 551.172Q363.371 549.466 361.096 547.665Q358.821 545.863 356.623 543.969Q354.424 542.075 352.306 540.092Q350.188 538.108 348.153 536.039Q346.119 533.97 344.172 531.818Q342.225 529.666 340.369 527.436Q338.512 525.205 336.75 522.9Q334.988 520.594 333.322 518.218Q331.657 515.841 330.091 513.398C326.073 507.078 322.834 500.371 319.578 493.642Z"/>
	<path d="M521.509 816.132C520.166 762.126 521.276 708 521.152 653.977L521.08 593.755C521.102 584.131 520.343 573.852 521.52 564.336C526.547 569.436 536.829 600.14 538.159 607.622C539.669 616.108 539.04 625.547 539.037 634.155L538.994 675.359L538.887 767.564C538.879 782.599 539.165 797.668 538.942 812.697C538.925 813.837 539.047 813.881 538.364 814.888Q529.959 815.811 521.509 816.132Z"/>
	<path d="M486.016 814.957L485.131 814.827L484.51 813.971C483.471 802.646 484.533 789.888 484.561 778.439L484.68 703.165L484.593 641.295C484.559 630.697 483.506 618.958 485.117 608.488C487.42 593.515 495.007 578.766 501.79 565.391C501.875 565.477 501.978 565.549 502.044 565.651C503.023 567.137 503.005 795.155 502.212 816.058C496.826 815.862 491.358 815.68 486.016 814.957Z"/>
	<path d="M591.836 804.729C599.074 795.002 608.014 786.441 615.872 777.195C634.481 755.299 654.835 726.187 665.607 699.406C671.067 685.83 674.085 671.112 677.648 656.938Q685.005 627.36 692.773 597.887C694.879 589.879 697.973 575.086 701.571 568.315C706.75 577.407 711.357 586.958 714.772 596.851C728.531 636.717 727.365 683.681 708.771 721.806C702.086 735.513 691.311 752.625 680.167 763.098C664.947 777.401 631.177 792.587 611.002 799.54Q601.566 802.678 591.836 804.729Z"/>
	<path d="M417.363 800.446Q408.796 797.711 400.428 794.416Q392.059 791.12 383.927 787.28Q375.795 783.439 367.935 779.07Q360.074 774.7 352.519 769.821C328.508 754.396 309.308 714 303.449 686.501C295.766 650.447 301.935 602.23 322.195 570.821C326.955 590.4 333.324 609.659 338.325 629.2C342.998 647.459 346.617 666.244 352.572 684.132C363.71 717.594 384.502 748.62 407.21 775.297C415.944 785.558 425.262 795.193 434.306 805.165C428.57 803.831 422.986 802.179 417.363 800.446Z"/>
	<path d="M448.349 808.778Q448.098 777.389 448.356 746Q448.173 710.533 448.358 675.066C448.474 651.69 447.436 628.08 448.488 604.748C454.443 604.518 460.45 604.607 466.412 604.552C466.851 639.803 466.4 675.087 466.534 710.343C466.566 718.877 467.397 809.849 466.78 811.518C466.674 811.805 466.466 812.043 466.309 812.306Q457.278 810.801 448.349 808.778Z"/>
	<path d="M556.889 812.732L556.971 673.346L556.8 628.528C556.765 621.526 556.062 613.777 556.896 606.853C557.041 605.647 556.921 605.496 557.935 604.748Q566.674 604.652 575.414 604.72Q574.7 655.041 575.017 705.364L574.483 808.326C573.736 809.499 573.532 809.346 572.158 809.689C567.051 810.596 561.972 811.699 556.889 812.732Z"/>
</svg>
